<?xml version="1.0" encoding="UTF-8" standalone="no"?>
<svg
   xmlns:dc="http://purl.org/dc/elements/1.1/"
   xmlns:cc="http://creativecommons.org/ns#"
   xmlns:rdf="http://www.w3.org/1999/02/22-rdf-syntax-ns#"
   xmlns:svg="http://www.w3.org/2000/svg"
   xmlns="http://www.w3.org/2000/svg"
   xmlns:sodipodi="http://sodipodi.sourceforge.net/DTD/sodipodi-0.dtd"
   xmlns:inkscape="http://www.inkscape.org/namespaces/inkscape"
   enable-background="new 0 0 48 48"
   height="48px"
   id="Layer_1"
   version="1.1"
   viewBox="0 0 48 48"
   width="48px"
   xml:space="preserve"
   sodipodi:docname="wallet-white.svg"
   inkscape:version="0.92.5 (2060ec1f9f, 2020-04-08)"><metadata
     id="metadata45"><rdf:RDF><cc:Work
         rdf:about=""><dc:format>image/svg+xml</dc:format><dc:type
           rdf:resource="http://purl.org/dc/dcmitype/StillImage" /><dc:title></dc:title></cc:Work></rdf:RDF></metadata><defs
     id="defs43" /><sodipodi:namedview
     pagecolor="#ffffff"
     bordercolor="#666666"
     borderopacity="1"
     objecttolerance="10"
     gridtolerance="10"
     guidetolerance="10"
     inkscape:pageopacity="0"
     inkscape:pageshadow="2"
     inkscape:window-width="1848"
     inkscape:window-height="1016"
     id="namedview41"
     showgrid="false"
     inkscape:zoom="17.458333"
     inkscape:cx="24"
     inkscape:cy="24"
     inkscape:window-x="72"
     inkscape:window-y="27"
     inkscape:window-maximized="1"
     inkscape:current-layer="Layer_1" /><path
     clip-rule="evenodd"
     d="M47,40L47,40c0,2.762-2.238,5-5,5l0,0H6l0,0c-2.762,0-5-2.238-5-5V11  c0-2.209,1.791-4,4-4l0,0h20.171l8.099-2.934c0.513-0.187,1.081,0.078,1.268,0.589L35.391,7H39c2.209,0,4,1.791,4,4v2l0,0  c2.209,0,4,1.791,4,4V40z M5,9L5,9c-1.104,0-2,0.896-2,2s0.896,2,2,2h3.445l0,0h0.189c0.013-0.005,0.021-0.016,0.034-0.021L19.65,9  H5z M34.078,9.181l-1.062-2.924l-0.001,0v0L30.964,7h0.003l-5.514,2h-0.01l-11.039,4h21.062L34.078,9.181z M41,11  c0-1.104-0.896-2-2-2h-2.883l1.454,4H41l0,0V11z M43,15H5l0,0c-0.732,0-1.41-0.211-2-0.555V40c0,1.657,1.344,3,3,3h36  c1.657,0,3-1.343,3-3v-7h-4c-2.209,0-4-1.791-4-4s1.791-4,4-4h4v-8C45,15.896,44.104,15,43,15z M45,31v-4h-4c-1.104,0-2,0.896-2,2  s0.896,2,2,2H45z M41,28h2v2h-2V28z"
     fill-rule="evenodd"
     id="path38" /><path
     style="fill:#ffffff;stroke-width:0.05727924"
     d="M 4.4838084,12.900433 C 3.6569721,12.677633 3.0510703,11.888778 3.0453652,11.027649 3.0408496,10.346066 3.3552167,9.7365212 3.895985,9.3783311 4.4563803,9.0071407 4.0148146,9.025313 12.085226,9.0413093 l 7.3346,0.014538 -5.416834,1.9622087 -5.4168345,1.962209 -1.9188544,-0.0043 c -1.3387025,-0.003 -1.9988665,-0.02582 -2.1834947,-0.07557 z"
     id="path47"
     inkscape:connector-curvature="0" /><path
     style="fill:#ffffff;stroke-width:0.05727924"
     d="m 14.743675,12.91465 c 0.130689,-0.05253 3.720551,-1.35608 8.763724,-3.1822692 5.666514,-2.0519086 9.209268,-3.3366559 9.343243,-3.3882409 l 0.149924,-0.057727 1.177694,3.2462923 c 0.64773,1.7854608 1.195193,3.2913998 1.216584,3.3465308 0.03696,0.09525 -0.479665,0.100058 -10.377737,0.09661 -7.039032,-0.0025 -10.370198,-0.02229 -10.273432,-0.06119 z"
     id="path49"
     inkscape:connector-curvature="0" /><path
     style="fill:#ffffff;stroke-width:0.05727924"
     d="M 5.5654445,42.934986 C 4.4236959,42.741263 3.5333255,41.979548 3.1568951,40.874463 L 3.0300716,40.502148 3.0146693,27.49345 2.9992669,14.484751 l 0.334703,0.159418 c 0.1840867,0.08768 0.4874377,0.205973 0.6741136,0.262873 0.3236012,0.09864 1.2518685,0.104845 19.9289095,0.13329 l 19.589499,0.02984 0.323141,0.15869 c 0.393583,0.193284 0.752662,0.570776 0.956453,1.005502 l 0.152387,0.325068 0.01609,4.195704 0.01609,4.195704 h -1.993732 c -1.096552,0 -2.206764,0.02671 -2.467137,0.05936 -2.849679,0.357319 -4.391578,3.346887 -3.056556,5.92632 0.142888,0.276077 0.360532,0.554906 0.698808,0.895261 0.414193,0.416737 0.576243,0.535295 1.032652,0.7555 0.855031,0.412529 1.079476,0.439931 3.603388,0.439931 h 2.179026 l -9.96e-4,3.594272 c -0.0011,4.00405 -0.006,4.065655 -0.375584,4.769049 -0.346186,0.658794 -0.921315,1.138997 -1.739999,1.452812 l -0.317788,0.121814 -18.357996,0.0079 c -10.096897,0.0044 -18.4800841,-0.01278 -18.6293045,-0.0381 z"
     id="path51"
     inkscape:connector-curvature="0" /><path
     style="fill:#ffffff;stroke-width:0.05727924"
     d="m 40.423342,30.882702 c -0.336441,-0.105199 -0.596267,-0.277511 -0.875916,-0.580895 -0.380352,-0.412633 -0.488924,-0.704979 -0.487546,-1.312786 0.0011,-0.475479 0.0162,-0.543396 0.194698,-0.874558 0.231268,-0.429062 0.535023,-0.717344 0.971483,-0.921995 l 0.32191,-0.150941 2.219571,-0.01741 2.21957,-0.01741 v 1.979226 1.979227 l -2.162291,-0.0038 c -1.609545,-0.0029 -2.223435,-0.02295 -2.401479,-0.07862 z m 2.616276,-1.865041 v -1.031026 h -1.031026 -1.031026 v 1.031026 1.031026 h 1.031026 1.031026 z"
     id="path53"
     inkscape:connector-curvature="0" /><path
     style="fill:#ffffff;stroke-width:0.05727924"
     d="m 37.546874,12.850597 c -0.02661,-0.07088 -0.338743,-0.927924 -0.693628,-1.904535 -0.354885,-0.9766109 -0.658109,-1.8096468 -0.67383,-1.8511908 -0.02335,-0.061716 0.279333,-0.072195 1.654473,-0.057279 l 1.683056,0.018255 0.347111,0.1814879 c 0.414973,0.2169692 0.728674,0.5481146 0.93393,0.9858619 0.145871,0.311099 0.151558,0.36279 0.169335,1.539094 l 0.01839,1.217184 h -1.69523 -1.69523 z"
     id="path74"
     inkscape:connector-curvature="0" /></svg>